M48
; DRILL file {KiCad (5.1.2)-1} date 2020/09/10 7:41:43
; FORMAT={3:3/ absolute / metric / suppress leading zeros}
; #@! TF.CreationDate,2020-09-10T07:41:43+09:00
; #@! TF.GenerationSoftware,Kicad,Pcbnew,(5.1.2)-1
FMAT,2
METRIC,TZ
T1C0.750
T2C0.950
T3C1.000
T4C3.200
%
G90
G05
T1
X12955Y19525
X12955Y17525
X14030Y11800
X14030Y9800
X18480Y19500
X18480Y17500
X18480Y15500
X18480Y13500
X18480Y11500
X18480Y9500
X18480Y7500
X20480Y19500
X20480Y17500
X20480Y15500
X20480Y13500
X20480Y11500
X20480Y9500
X20480Y7500
X25150Y19240
X25150Y17240
T2
X31155Y4200
X33655Y4200
X36155Y4200
X38655Y4200
X7455Y4925
X9955Y4925
X12455Y4925
X25820Y10730
X28320Y10730
X30820Y10730
X33320Y10730
X17050Y2870
X19550Y2870
X22050Y2870
X24550Y2870
X27050Y2870
T3
X32430Y19090
X32430Y16590
T4
X41480Y11975
X5630Y11975
T0
M30
