G04 #@! TF.GenerationSoftware,KiCad,Pcbnew,(5.1.2)-1*
G04 #@! TF.CreationDate,2020-09-10T07:29:52+09:00*
G04 #@! TF.ProjectId,Ai3MS_connector_board,4169334d-535f-4636-9f6e-6e6563746f72,rev?*
G04 #@! TF.SameCoordinates,PX7efb530PY7b459e0*
G04 #@! TF.FileFunction,Legend,Bot*
G04 #@! TF.FilePolarity,Positive*
%FSLAX46Y46*%
G04 Gerber Fmt 4.6, Leading zero omitted, Abs format (unit mm)*
G04 Created by KiCad (PCBNEW (5.1.2)-1) date 2020-09-10 07:29:52*
%MOMM*%
%LPD*%
G04 APERTURE LIST*
%ADD10C,0.120000*%
%ADD11C,0.150000*%
G04 APERTURE END LIST*
D10*
X36480000Y6975000D02*
X46480000Y6975000D01*
X36480000Y6975000D02*
X36480000Y21975000D01*
X46480000Y6975000D02*
X46480000Y21975000D01*
X36480000Y21975000D02*
X46480000Y21975000D01*
X36480000Y16975000D02*
X46480000Y16975000D01*
X36480000Y18975000D02*
X46480000Y18975000D01*
X630000Y6975000D02*
X10630000Y6975000D01*
X630000Y6975000D02*
X630000Y21975000D01*
X10630000Y6975000D02*
X10630000Y21975000D01*
X630000Y21975000D02*
X10630000Y21975000D01*
X630000Y16975000D02*
X10630000Y16975000D01*
X630000Y18975000D02*
X10630000Y18975000D01*
X14490000Y410000D02*
X14490000Y6380000D01*
X14490000Y6380000D02*
X29610000Y6380000D01*
X29610000Y6380000D02*
X29610000Y410000D01*
X29610000Y410000D02*
X14490000Y410000D01*
X17800000Y420000D02*
X17800000Y1170000D01*
X17800000Y1170000D02*
X26300000Y1170000D01*
X26300000Y1170000D02*
X26300000Y420000D01*
X26300000Y420000D02*
X17800000Y420000D01*
X14500000Y420000D02*
X14500000Y1170000D01*
X14500000Y1170000D02*
X16300000Y1170000D01*
X16300000Y1170000D02*
X16300000Y420000D01*
X16300000Y420000D02*
X14500000Y420000D01*
X27800000Y420000D02*
X27800000Y1170000D01*
X27800000Y1170000D02*
X29600000Y1170000D01*
X29600000Y1170000D02*
X29600000Y420000D01*
X29600000Y420000D02*
X27800000Y420000D01*
X14500000Y2670000D02*
X15250000Y2670000D01*
X15250000Y2670000D02*
X15250000Y5620000D01*
X15250000Y5620000D02*
X22050000Y5620000D01*
X29600000Y2670000D02*
X28850000Y2670000D01*
X28850000Y2670000D02*
X28850000Y5620000D01*
X28850000Y5620000D02*
X22050000Y5620000D01*
X15450000Y120000D02*
X14200000Y120000D01*
X14200000Y120000D02*
X14200000Y1370000D01*
X36170000Y13480000D02*
X36170000Y12230000D01*
X34920000Y13480000D02*
X36170000Y13480000D01*
X24020000Y7980000D02*
X29570000Y7980000D01*
X24020000Y10930000D02*
X24020000Y7980000D01*
X23270000Y10930000D02*
X24020000Y10930000D01*
X35120000Y7980000D02*
X29570000Y7980000D01*
X35120000Y10930000D02*
X35120000Y7980000D01*
X35870000Y10930000D02*
X35120000Y10930000D01*
X23270000Y13180000D02*
X25070000Y13180000D01*
X23270000Y12430000D02*
X23270000Y13180000D01*
X25070000Y12430000D02*
X23270000Y12430000D01*
X25070000Y13180000D02*
X25070000Y12430000D01*
X34070000Y13180000D02*
X35870000Y13180000D01*
X34070000Y12430000D02*
X34070000Y13180000D01*
X35870000Y12430000D02*
X34070000Y12430000D01*
X35870000Y13180000D02*
X35870000Y12430000D01*
X26570000Y13180000D02*
X32570000Y13180000D01*
X26570000Y12430000D02*
X26570000Y13180000D01*
X32570000Y12430000D02*
X26570000Y12430000D01*
X32570000Y13180000D02*
X32570000Y12430000D01*
X23260000Y13190000D02*
X35880000Y13190000D01*
X23260000Y7220000D02*
X23260000Y13190000D01*
X35880000Y7220000D02*
X23260000Y7220000D01*
X35880000Y13190000D02*
X35880000Y7220000D01*
X11145000Y21585000D02*
X15865000Y21585000D01*
X15865000Y21585000D02*
X15865000Y15465000D01*
X15865000Y15465000D02*
X11145000Y15465000D01*
X11145000Y15465000D02*
X11145000Y21585000D01*
X11145000Y19825000D02*
X10945000Y19825000D01*
X10945000Y19825000D02*
X10945000Y20125000D01*
X10945000Y20125000D02*
X11145000Y20125000D01*
X11045000Y19825000D02*
X11045000Y20125000D01*
X11145000Y19025000D02*
X11755000Y19025000D01*
X11755000Y19025000D02*
X11755000Y20975000D01*
X11755000Y20975000D02*
X15255000Y20975000D01*
X15255000Y20975000D02*
X15255000Y16075000D01*
X15255000Y16075000D02*
X11755000Y16075000D01*
X11755000Y16075000D02*
X11755000Y18025000D01*
X11755000Y18025000D02*
X11145000Y18025000D01*
X12455000Y21585000D02*
X12455000Y20975000D01*
X13755000Y21585000D02*
X13755000Y20975000D01*
X12455000Y15465000D02*
X12455000Y16075000D01*
X13755000Y15465000D02*
X13755000Y16075000D01*
X15255000Y18625000D02*
X14755000Y18625000D01*
X14755000Y18625000D02*
X14755000Y18425000D01*
X14755000Y18425000D02*
X15255000Y18425000D01*
X15255000Y18525000D02*
X14755000Y18525000D01*
X10845000Y20635000D02*
X10845000Y21885000D01*
X10845000Y21885000D02*
X12095000Y21885000D01*
X23340000Y21300000D02*
X28060000Y21300000D01*
X28060000Y21300000D02*
X28060000Y15180000D01*
X28060000Y15180000D02*
X23340000Y15180000D01*
X23340000Y15180000D02*
X23340000Y21300000D01*
X23340000Y19540000D02*
X23140000Y19540000D01*
X23140000Y19540000D02*
X23140000Y19840000D01*
X23140000Y19840000D02*
X23340000Y19840000D01*
X23240000Y19540000D02*
X23240000Y19840000D01*
X23340000Y18740000D02*
X23950000Y18740000D01*
X23950000Y18740000D02*
X23950000Y20690000D01*
X23950000Y20690000D02*
X27450000Y20690000D01*
X27450000Y20690000D02*
X27450000Y15790000D01*
X27450000Y15790000D02*
X23950000Y15790000D01*
X23950000Y15790000D02*
X23950000Y17740000D01*
X23950000Y17740000D02*
X23340000Y17740000D01*
X24650000Y21300000D02*
X24650000Y20690000D01*
X25950000Y21300000D02*
X25950000Y20690000D01*
X24650000Y15180000D02*
X24650000Y15790000D01*
X25950000Y15180000D02*
X25950000Y15790000D01*
X27450000Y18340000D02*
X26950000Y18340000D01*
X26950000Y18340000D02*
X26950000Y18140000D01*
X26950000Y18140000D02*
X27450000Y18140000D01*
X27450000Y18240000D02*
X26950000Y18240000D01*
X23040000Y20350000D02*
X23040000Y21600000D01*
X23040000Y21600000D02*
X24290000Y21600000D01*
X35180000Y13740000D02*
X33930000Y13740000D01*
X35180000Y14990000D02*
X35180000Y13740000D01*
X29680000Y20890000D02*
X29680000Y17840000D01*
X32630000Y20890000D02*
X29680000Y20890000D01*
X32630000Y21640000D02*
X32630000Y20890000D01*
X29680000Y14790000D02*
X29680000Y17840000D01*
X32630000Y14790000D02*
X29680000Y14790000D01*
X32630000Y14040000D02*
X32630000Y14790000D01*
X34880000Y21640000D02*
X34880000Y19840000D01*
X34130000Y21640000D02*
X34880000Y21640000D01*
X34130000Y19840000D02*
X34130000Y21640000D01*
X34880000Y19840000D02*
X34130000Y19840000D01*
X34880000Y15840000D02*
X34880000Y14040000D01*
X34130000Y15840000D02*
X34880000Y15840000D01*
X34130000Y14040000D02*
X34130000Y15840000D01*
X34880000Y14040000D02*
X34130000Y14040000D01*
X34880000Y18340000D02*
X34880000Y17340000D01*
X34130000Y18340000D02*
X34880000Y18340000D01*
X34130000Y17340000D02*
X34130000Y18340000D01*
X34880000Y17340000D02*
X34130000Y17340000D01*
X34890000Y21650000D02*
X34890000Y14030000D01*
X28920000Y21650000D02*
X34890000Y21650000D01*
X28920000Y14030000D02*
X28920000Y21650000D01*
X34890000Y14030000D02*
X28920000Y14030000D01*
X16140000Y7440000D02*
X14890000Y7440000D01*
X16140000Y8690000D02*
X16140000Y7440000D01*
X11730000Y10800000D02*
X12230000Y10800000D01*
X12230000Y10900000D02*
X11730000Y10900000D01*
X12230000Y10700000D02*
X12230000Y10900000D01*
X11730000Y10700000D02*
X12230000Y10700000D01*
X13230000Y13860000D02*
X13230000Y13250000D01*
X14530000Y13860000D02*
X14530000Y13250000D01*
X13230000Y7740000D02*
X13230000Y8350000D01*
X14530000Y7740000D02*
X14530000Y8350000D01*
X15230000Y11300000D02*
X15840000Y11300000D01*
X15230000Y13250000D02*
X15230000Y11300000D01*
X11730000Y13250000D02*
X15230000Y13250000D01*
X11730000Y8350000D02*
X11730000Y13250000D01*
X15230000Y8350000D02*
X11730000Y8350000D01*
X15230000Y10300000D02*
X15230000Y8350000D01*
X15840000Y10300000D02*
X15230000Y10300000D01*
X15940000Y9500000D02*
X15940000Y9200000D01*
X16040000Y9200000D02*
X15840000Y9200000D01*
X16040000Y9500000D02*
X16040000Y9200000D01*
X15840000Y9500000D02*
X16040000Y9500000D01*
X15840000Y13860000D02*
X15840000Y7740000D01*
X11120000Y13860000D02*
X15840000Y13860000D01*
X11120000Y7740000D02*
X11120000Y13860000D01*
X15840000Y7740000D02*
X11120000Y7740000D01*
D11*
X13460000Y1011429D02*
X13317142Y963810D01*
X13269523Y916191D01*
X13221904Y820953D01*
X13221904Y678096D01*
X13269523Y582858D01*
X13317142Y535239D01*
X13412380Y487620D01*
X13793333Y487620D01*
X13793333Y1487620D01*
X13460000Y1487620D01*
X13364761Y1440000D01*
X13317142Y1392381D01*
X13269523Y1297143D01*
X13269523Y1201905D01*
X13317142Y1106667D01*
X13364761Y1059048D01*
X13460000Y1011429D01*
X13793333Y1011429D01*
X12317142Y487620D02*
X12793333Y487620D01*
X12793333Y1487620D01*
X12126666Y1487620D02*
X11555238Y1487620D01*
X11840952Y487620D02*
X11840952Y1487620D01*
X11079047Y487620D02*
X11174285Y535239D01*
X11221904Y582858D01*
X11269523Y678096D01*
X11269523Y963810D01*
X11221904Y1059048D01*
X11174285Y1106667D01*
X11079047Y1154286D01*
X10936190Y1154286D01*
X10840952Y1106667D01*
X10793333Y1059048D01*
X10745714Y963810D01*
X10745714Y678096D01*
X10793333Y582858D01*
X10840952Y535239D01*
X10936190Y487620D01*
X11079047Y487620D01*
X9888571Y1154286D02*
X9888571Y487620D01*
X10317142Y1154286D02*
X10317142Y630477D01*
X10269523Y535239D01*
X10174285Y487620D01*
X10031428Y487620D01*
X9936190Y535239D01*
X9888571Y582858D01*
X8983809Y535239D02*
X9079047Y487620D01*
X9269523Y487620D01*
X9364761Y535239D01*
X9412380Y582858D01*
X9460000Y678096D01*
X9460000Y963810D01*
X9412380Y1059048D01*
X9364761Y1106667D01*
X9269523Y1154286D01*
X9079047Y1154286D01*
X8983809Y1106667D01*
X8555238Y487620D02*
X8555238Y1487620D01*
X8126666Y487620D02*
X8126666Y1011429D01*
X8174285Y1106667D01*
X8269523Y1154286D01*
X8412380Y1154286D01*
X8507619Y1106667D01*
X8555238Y1059048D01*
X36157142Y6241429D02*
X35823809Y6241429D01*
X35680952Y5717620D02*
X36157142Y5717620D01*
X36157142Y6717620D01*
X35680952Y6717620D01*
X35347619Y5717620D02*
X34823809Y6384286D01*
X35347619Y6384286D02*
X34823809Y5717620D01*
X34585714Y6384286D02*
X34204761Y6384286D01*
X34442857Y6717620D02*
X34442857Y5860477D01*
X34395238Y5765239D01*
X34300000Y5717620D01*
X34204761Y5717620D01*
X33871428Y5717620D02*
X33871428Y6384286D01*
X33871428Y6193810D02*
X33823809Y6289048D01*
X33776190Y6336667D01*
X33680952Y6384286D01*
X33585714Y6384286D01*
X32823809Y6384286D02*
X32823809Y5717620D01*
X33252380Y6384286D02*
X33252380Y5860477D01*
X33204761Y5765239D01*
X33109523Y5717620D01*
X32966666Y5717620D01*
X32871428Y5765239D01*
X32823809Y5812858D01*
X31919047Y5717620D02*
X31919047Y6717620D01*
X31919047Y5765239D02*
X32014285Y5717620D01*
X32204761Y5717620D01*
X32300000Y5765239D01*
X32347619Y5812858D01*
X32395238Y5908096D01*
X32395238Y6193810D01*
X32347619Y6289048D01*
X32300000Y6336667D01*
X32204761Y6384286D01*
X32014285Y6384286D01*
X31919047Y6336667D01*
X31061904Y5765239D02*
X31157142Y5717620D01*
X31347619Y5717620D01*
X31442857Y5765239D01*
X31490476Y5860477D01*
X31490476Y6241429D01*
X31442857Y6336667D01*
X31347619Y6384286D01*
X31157142Y6384286D01*
X31061904Y6336667D01*
X31014285Y6241429D01*
X31014285Y6146191D01*
X31490476Y6050953D01*
X30585714Y5717620D02*
X30585714Y6384286D01*
X30585714Y6193810D02*
X30538095Y6289048D01*
X30490476Y6336667D01*
X30395238Y6384286D01*
X30300000Y6384286D01*
X17142380Y21517620D02*
X16142380Y21517620D01*
X16142380Y21136667D01*
X16190000Y21041429D01*
X16237619Y20993810D01*
X16332857Y20946191D01*
X16475714Y20946191D01*
X16570952Y20993810D01*
X16618571Y21041429D01*
X16666190Y21136667D01*
X16666190Y21517620D01*
X17142380Y20089048D02*
X16618571Y20089048D01*
X16523333Y20136667D01*
X16475714Y20231905D01*
X16475714Y20422381D01*
X16523333Y20517620D01*
X17094761Y20089048D02*
X17142380Y20184286D01*
X17142380Y20422381D01*
X17094761Y20517620D01*
X16999523Y20565239D01*
X16904285Y20565239D01*
X16809047Y20517620D01*
X16761428Y20422381D01*
X16761428Y20184286D01*
X16713809Y20089048D01*
X17142380Y19612858D02*
X16475714Y19612858D01*
X16666190Y19612858D02*
X16570952Y19565239D01*
X16523333Y19517620D01*
X16475714Y19422381D01*
X16475714Y19327143D01*
X16475714Y19136667D02*
X16475714Y18755715D01*
X16142380Y18993810D02*
X16999523Y18993810D01*
X17094761Y18946191D01*
X17142380Y18850953D01*
X17142380Y18755715D01*
X17094761Y18470000D02*
X17142380Y18374762D01*
X17142380Y18184286D01*
X17094761Y18089048D01*
X16999523Y18041429D01*
X16951904Y18041429D01*
X16856666Y18089048D01*
X16809047Y18184286D01*
X16809047Y18327143D01*
X16761428Y18422381D01*
X16666190Y18470000D01*
X16618571Y18470000D01*
X16523333Y18422381D01*
X16475714Y18327143D01*
X16475714Y18184286D01*
X16523333Y18089048D01*
X16618571Y17279524D02*
X16618571Y17612858D01*
X17142380Y17612858D02*
X16142380Y17612858D01*
X16142380Y17136667D01*
X17142380Y16327143D02*
X16618571Y16327143D01*
X16523333Y16374762D01*
X16475714Y16470000D01*
X16475714Y16660477D01*
X16523333Y16755715D01*
X17094761Y16327143D02*
X17142380Y16422381D01*
X17142380Y16660477D01*
X17094761Y16755715D01*
X16999523Y16803334D01*
X16904285Y16803334D01*
X16809047Y16755715D01*
X16761428Y16660477D01*
X16761428Y16422381D01*
X16713809Y16327143D01*
X16475714Y15850953D02*
X17142380Y15850953D01*
X16570952Y15850953D02*
X16523333Y15803334D01*
X16475714Y15708096D01*
X16475714Y15565239D01*
X16523333Y15470000D01*
X16618571Y15422381D01*
X17142380Y15422381D01*
X22802380Y21654286D02*
X21802380Y21654286D01*
X22278571Y21654286D02*
X22278571Y21082858D01*
X22802380Y21082858D02*
X21802380Y21082858D01*
X22802380Y20463810D02*
X22754761Y20559048D01*
X22707142Y20606667D01*
X22611904Y20654286D01*
X22326190Y20654286D01*
X22230952Y20606667D01*
X22183333Y20559048D01*
X22135714Y20463810D01*
X22135714Y20320953D01*
X22183333Y20225715D01*
X22230952Y20178096D01*
X22326190Y20130477D01*
X22611904Y20130477D01*
X22707142Y20178096D01*
X22754761Y20225715D01*
X22802380Y20320953D01*
X22802380Y20463810D01*
X22135714Y19844762D02*
X22135714Y19463810D01*
X21802380Y19701905D02*
X22659523Y19701905D01*
X22754761Y19654286D01*
X22802380Y19559048D01*
X22802380Y19463810D01*
X22278571Y19130477D02*
X22278571Y18797143D01*
X22802380Y18654286D02*
X22802380Y19130477D01*
X21802380Y19130477D01*
X21802380Y18654286D01*
X22135714Y18225715D02*
X22802380Y18225715D01*
X22230952Y18225715D02*
X22183333Y18178096D01*
X22135714Y18082858D01*
X22135714Y17940000D01*
X22183333Y17844762D01*
X22278571Y17797143D01*
X22802380Y17797143D01*
X22802380Y16892381D02*
X21802380Y16892381D01*
X22754761Y16892381D02*
X22802380Y16987620D01*
X22802380Y17178096D01*
X22754761Y17273334D01*
X22707142Y17320953D01*
X22611904Y17368572D01*
X22326190Y17368572D01*
X22230952Y17320953D01*
X22183333Y17273334D01*
X22135714Y17178096D01*
X22135714Y16987620D01*
X22183333Y16892381D01*
X22278571Y16082858D02*
X22278571Y16416191D01*
X22802380Y16416191D02*
X21802380Y16416191D01*
X21802380Y15940000D01*
X22802380Y15130477D02*
X22278571Y15130477D01*
X22183333Y15178096D01*
X22135714Y15273334D01*
X22135714Y15463810D01*
X22183333Y15559048D01*
X22754761Y15130477D02*
X22802380Y15225715D01*
X22802380Y15463810D01*
X22754761Y15559048D01*
X22659523Y15606667D01*
X22564285Y15606667D01*
X22469047Y15559048D01*
X22421428Y15463810D01*
X22421428Y15225715D01*
X22373809Y15130477D01*
X22135714Y14654286D02*
X22802380Y14654286D01*
X22230952Y14654286D02*
X22183333Y14606667D01*
X22135714Y14511429D01*
X22135714Y14368572D01*
X22183333Y14273334D01*
X22278571Y14225715D01*
X22802380Y14225715D01*
X36142380Y21620953D02*
X35142380Y21620953D01*
X35618571Y21620953D02*
X35618571Y21049524D01*
X36142380Y21049524D02*
X35142380Y21049524D01*
X36142380Y20430477D02*
X36094761Y20525715D01*
X36047142Y20573334D01*
X35951904Y20620953D01*
X35666190Y20620953D01*
X35570952Y20573334D01*
X35523333Y20525715D01*
X35475714Y20430477D01*
X35475714Y20287620D01*
X35523333Y20192381D01*
X35570952Y20144762D01*
X35666190Y20097143D01*
X35951904Y20097143D01*
X36047142Y20144762D01*
X36094761Y20192381D01*
X36142380Y20287620D01*
X36142380Y20430477D01*
X35475714Y19811429D02*
X35475714Y19430477D01*
X35142380Y19668572D02*
X35999523Y19668572D01*
X36094761Y19620953D01*
X36142380Y19525715D01*
X36142380Y19430477D01*
X35618571Y19097143D02*
X35618571Y18763810D01*
X36142380Y18620953D02*
X36142380Y19097143D01*
X35142380Y19097143D01*
X35142380Y18620953D01*
X35475714Y18192381D02*
X36142380Y18192381D01*
X35570952Y18192381D02*
X35523333Y18144762D01*
X35475714Y18049524D01*
X35475714Y17906667D01*
X35523333Y17811429D01*
X35618571Y17763810D01*
X36142380Y17763810D01*
X36142380Y16859048D02*
X35142380Y16859048D01*
X36094761Y16859048D02*
X36142380Y16954286D01*
X36142380Y17144762D01*
X36094761Y17240000D01*
X36047142Y17287620D01*
X35951904Y17335239D01*
X35666190Y17335239D01*
X35570952Y17287620D01*
X35523333Y17240000D01*
X35475714Y17144762D01*
X35475714Y16954286D01*
X35523333Y16859048D01*
X16202380Y14443334D02*
X16202380Y13871905D01*
X17202380Y14157620D02*
X16202380Y14157620D01*
X17202380Y13538572D02*
X16202380Y13538572D01*
X17202380Y13110000D02*
X16678571Y13110000D01*
X16583333Y13157620D01*
X16535714Y13252858D01*
X16535714Y13395715D01*
X16583333Y13490953D01*
X16630952Y13538572D01*
X17154761Y12252858D02*
X17202380Y12348096D01*
X17202380Y12538572D01*
X17154761Y12633810D01*
X17059523Y12681429D01*
X16678571Y12681429D01*
X16583333Y12633810D01*
X16535714Y12538572D01*
X16535714Y12348096D01*
X16583333Y12252858D01*
X16678571Y12205239D01*
X16773809Y12205239D01*
X16869047Y12681429D01*
X17202380Y11776667D02*
X16535714Y11776667D01*
X16726190Y11776667D02*
X16630952Y11729048D01*
X16583333Y11681429D01*
X16535714Y11586191D01*
X16535714Y11490953D01*
X17202380Y11157620D02*
X16535714Y11157620D01*
X16630952Y11157620D02*
X16583333Y11110000D01*
X16535714Y11014762D01*
X16535714Y10871905D01*
X16583333Y10776667D01*
X16678571Y10729048D01*
X17202380Y10729048D01*
X16678571Y10729048D02*
X16583333Y10681429D01*
X16535714Y10586191D01*
X16535714Y10443334D01*
X16583333Y10348096D01*
X16678571Y10300477D01*
X17202380Y10300477D01*
X17202380Y9824286D02*
X16535714Y9824286D01*
X16202380Y9824286D02*
X16250000Y9871905D01*
X16297619Y9824286D01*
X16250000Y9776667D01*
X16202380Y9824286D01*
X16297619Y9824286D01*
X17154761Y9395715D02*
X17202380Y9300477D01*
X17202380Y9110000D01*
X17154761Y9014762D01*
X17059523Y8967143D01*
X17011904Y8967143D01*
X16916666Y9014762D01*
X16869047Y9110000D01*
X16869047Y9252858D01*
X16821428Y9348096D01*
X16726190Y9395715D01*
X16678571Y9395715D01*
X16583333Y9348096D01*
X16535714Y9252858D01*
X16535714Y9110000D01*
X16583333Y9014762D01*
X16535714Y8681429D02*
X16535714Y8300477D01*
X16202380Y8538572D02*
X17059523Y8538572D01*
X17154761Y8490953D01*
X17202380Y8395715D01*
X17202380Y8300477D01*
X17202380Y7824286D02*
X17154761Y7919524D01*
X17107142Y7967143D01*
X17011904Y8014762D01*
X16726190Y8014762D01*
X16630952Y7967143D01*
X16583333Y7919524D01*
X16535714Y7824286D01*
X16535714Y7681429D01*
X16583333Y7586191D01*
X16630952Y7538572D01*
X16726190Y7490953D01*
X17011904Y7490953D01*
X17107142Y7538572D01*
X17154761Y7586191D01*
X17202380Y7681429D01*
X17202380Y7824286D01*
X17202380Y7062381D02*
X16535714Y7062381D01*
X16726190Y7062381D02*
X16630952Y7014762D01*
X16583333Y6967143D01*
X16535714Y6871905D01*
X16535714Y6776667D01*
M02*
