G04 #@! TF.GenerationSoftware,KiCad,Pcbnew,(5.1.2)-1*
G04 #@! TF.CreationDate,2020-08-06T11:16:41+09:00*
G04 #@! TF.ProjectId,i3mega_connector_board,69336d65-6761-45f6-936f-6e6e6563746f,rev?*
G04 #@! TF.SameCoordinates,PX7efb530PY7b459e0*
G04 #@! TF.FileFunction,Legend,Bot*
G04 #@! TF.FilePolarity,Positive*
%FSLAX46Y46*%
G04 Gerber Fmt 4.6, Leading zero omitted, Abs format (unit mm)*
G04 Created by KiCad (PCBNEW (5.1.2)-1) date 2020-08-06 11:16:41*
%MOMM*%
%LPD*%
G04 APERTURE LIST*
%ADD10C,0.120000*%
%ADD11C,0.150000*%
G04 APERTURE END LIST*
D10*
X14490000Y410000D02*
X14490000Y6380000D01*
X14490000Y6380000D02*
X29610000Y6380000D01*
X29610000Y6380000D02*
X29610000Y410000D01*
X29610000Y410000D02*
X14490000Y410000D01*
X17800000Y420000D02*
X17800000Y1170000D01*
X17800000Y1170000D02*
X26300000Y1170000D01*
X26300000Y1170000D02*
X26300000Y420000D01*
X26300000Y420000D02*
X17800000Y420000D01*
X14500000Y420000D02*
X14500000Y1170000D01*
X14500000Y1170000D02*
X16300000Y1170000D01*
X16300000Y1170000D02*
X16300000Y420000D01*
X16300000Y420000D02*
X14500000Y420000D01*
X27800000Y420000D02*
X27800000Y1170000D01*
X27800000Y1170000D02*
X29600000Y1170000D01*
X29600000Y1170000D02*
X29600000Y420000D01*
X29600000Y420000D02*
X27800000Y420000D01*
X14500000Y2670000D02*
X15250000Y2670000D01*
X15250000Y2670000D02*
X15250000Y5620000D01*
X15250000Y5620000D02*
X22050000Y5620000D01*
X29600000Y2670000D02*
X28850000Y2670000D01*
X28850000Y2670000D02*
X28850000Y5620000D01*
X28850000Y5620000D02*
X22050000Y5620000D01*
X15450000Y120000D02*
X14200000Y120000D01*
X14200000Y120000D02*
X14200000Y1370000D01*
X36480000Y18975000D02*
X46480000Y18975000D01*
X36480000Y16975000D02*
X46480000Y16975000D01*
X36480000Y21975000D02*
X46480000Y21975000D01*
X46480000Y6975000D02*
X46480000Y21975000D01*
X36480000Y6975000D02*
X36480000Y21975000D01*
X36480000Y6975000D02*
X46480000Y6975000D01*
X630000Y18975000D02*
X10630000Y18975000D01*
X630000Y16975000D02*
X10630000Y16975000D01*
X630000Y21975000D02*
X10630000Y21975000D01*
X10630000Y6975000D02*
X10630000Y21975000D01*
X630000Y6975000D02*
X630000Y21975000D01*
X630000Y6975000D02*
X10630000Y6975000D01*
X36170000Y13480000D02*
X36170000Y12230000D01*
X34920000Y13480000D02*
X36170000Y13480000D01*
X24020000Y7980000D02*
X29570000Y7980000D01*
X24020000Y10930000D02*
X24020000Y7980000D01*
X23270000Y10930000D02*
X24020000Y10930000D01*
X35120000Y7980000D02*
X29570000Y7980000D01*
X35120000Y10930000D02*
X35120000Y7980000D01*
X35870000Y10930000D02*
X35120000Y10930000D01*
X23270000Y13180000D02*
X25070000Y13180000D01*
X23270000Y12430000D02*
X23270000Y13180000D01*
X25070000Y12430000D02*
X23270000Y12430000D01*
X25070000Y13180000D02*
X25070000Y12430000D01*
X34070000Y13180000D02*
X35870000Y13180000D01*
X34070000Y12430000D02*
X34070000Y13180000D01*
X35870000Y12430000D02*
X34070000Y12430000D01*
X35870000Y13180000D02*
X35870000Y12430000D01*
X26570000Y13180000D02*
X32570000Y13180000D01*
X26570000Y12430000D02*
X26570000Y13180000D01*
X32570000Y12430000D02*
X26570000Y12430000D01*
X32570000Y13180000D02*
X32570000Y12430000D01*
X23260000Y13190000D02*
X35880000Y13190000D01*
X23260000Y7220000D02*
X23260000Y13190000D01*
X35880000Y7220000D02*
X23260000Y7220000D01*
X35880000Y13190000D02*
X35880000Y7220000D01*
X11145000Y21585000D02*
X15865000Y21585000D01*
X15865000Y21585000D02*
X15865000Y15465000D01*
X15865000Y15465000D02*
X11145000Y15465000D01*
X11145000Y15465000D02*
X11145000Y21585000D01*
X11145000Y19825000D02*
X10945000Y19825000D01*
X10945000Y19825000D02*
X10945000Y20125000D01*
X10945000Y20125000D02*
X11145000Y20125000D01*
X11045000Y19825000D02*
X11045000Y20125000D01*
X11145000Y19025000D02*
X11755000Y19025000D01*
X11755000Y19025000D02*
X11755000Y20975000D01*
X11755000Y20975000D02*
X15255000Y20975000D01*
X15255000Y20975000D02*
X15255000Y16075000D01*
X15255000Y16075000D02*
X11755000Y16075000D01*
X11755000Y16075000D02*
X11755000Y18025000D01*
X11755000Y18025000D02*
X11145000Y18025000D01*
X12455000Y21585000D02*
X12455000Y20975000D01*
X13755000Y21585000D02*
X13755000Y20975000D01*
X12455000Y15465000D02*
X12455000Y16075000D01*
X13755000Y15465000D02*
X13755000Y16075000D01*
X15255000Y18625000D02*
X14755000Y18625000D01*
X14755000Y18625000D02*
X14755000Y18425000D01*
X14755000Y18425000D02*
X15255000Y18425000D01*
X15255000Y18525000D02*
X14755000Y18525000D01*
X10845000Y20635000D02*
X10845000Y21885000D01*
X10845000Y21885000D02*
X12095000Y21885000D01*
X23340000Y21300000D02*
X28060000Y21300000D01*
X28060000Y21300000D02*
X28060000Y15180000D01*
X28060000Y15180000D02*
X23340000Y15180000D01*
X23340000Y15180000D02*
X23340000Y21300000D01*
X23340000Y19540000D02*
X23140000Y19540000D01*
X23140000Y19540000D02*
X23140000Y19840000D01*
X23140000Y19840000D02*
X23340000Y19840000D01*
X23240000Y19540000D02*
X23240000Y19840000D01*
X23340000Y18740000D02*
X23950000Y18740000D01*
X23950000Y18740000D02*
X23950000Y20690000D01*
X23950000Y20690000D02*
X27450000Y20690000D01*
X27450000Y20690000D02*
X27450000Y15790000D01*
X27450000Y15790000D02*
X23950000Y15790000D01*
X23950000Y15790000D02*
X23950000Y17740000D01*
X23950000Y17740000D02*
X23340000Y17740000D01*
X24650000Y21300000D02*
X24650000Y20690000D01*
X25950000Y21300000D02*
X25950000Y20690000D01*
X24650000Y15180000D02*
X24650000Y15790000D01*
X25950000Y15180000D02*
X25950000Y15790000D01*
X27450000Y18340000D02*
X26950000Y18340000D01*
X26950000Y18340000D02*
X26950000Y18140000D01*
X26950000Y18140000D02*
X27450000Y18140000D01*
X27450000Y18240000D02*
X26950000Y18240000D01*
X23040000Y20350000D02*
X23040000Y21600000D01*
X23040000Y21600000D02*
X24290000Y21600000D01*
X35180000Y13740000D02*
X33930000Y13740000D01*
X35180000Y14990000D02*
X35180000Y13740000D01*
X29680000Y20890000D02*
X29680000Y17840000D01*
X32630000Y20890000D02*
X29680000Y20890000D01*
X32630000Y21640000D02*
X32630000Y20890000D01*
X29680000Y14790000D02*
X29680000Y17840000D01*
X32630000Y14790000D02*
X29680000Y14790000D01*
X32630000Y14040000D02*
X32630000Y14790000D01*
X34880000Y21640000D02*
X34880000Y19840000D01*
X34130000Y21640000D02*
X34880000Y21640000D01*
X34130000Y19840000D02*
X34130000Y21640000D01*
X34880000Y19840000D02*
X34130000Y19840000D01*
X34880000Y15840000D02*
X34880000Y14040000D01*
X34130000Y15840000D02*
X34880000Y15840000D01*
X34130000Y14040000D02*
X34130000Y15840000D01*
X34880000Y14040000D02*
X34130000Y14040000D01*
X34880000Y18340000D02*
X34880000Y17340000D01*
X34130000Y18340000D02*
X34880000Y18340000D01*
X34130000Y17340000D02*
X34130000Y18340000D01*
X34880000Y17340000D02*
X34130000Y17340000D01*
X34890000Y21650000D02*
X34890000Y14030000D01*
X28920000Y21650000D02*
X34890000Y21650000D01*
X28920000Y14030000D02*
X28920000Y21650000D01*
X34890000Y14030000D02*
X28920000Y14030000D01*
X16140000Y7440000D02*
X14890000Y7440000D01*
X16140000Y8690000D02*
X16140000Y7440000D01*
X11730000Y10800000D02*
X12230000Y10800000D01*
X12230000Y10900000D02*
X11730000Y10900000D01*
X12230000Y10700000D02*
X12230000Y10900000D01*
X11730000Y10700000D02*
X12230000Y10700000D01*
X13230000Y13860000D02*
X13230000Y13250000D01*
X14530000Y13860000D02*
X14530000Y13250000D01*
X13230000Y7740000D02*
X13230000Y8350000D01*
X14530000Y7740000D02*
X14530000Y8350000D01*
X15230000Y11300000D02*
X15840000Y11300000D01*
X15230000Y13250000D02*
X15230000Y11300000D01*
X11730000Y13250000D02*
X15230000Y13250000D01*
X11730000Y8350000D02*
X11730000Y13250000D01*
X15230000Y8350000D02*
X11730000Y8350000D01*
X15230000Y10300000D02*
X15230000Y8350000D01*
X15840000Y10300000D02*
X15230000Y10300000D01*
X15940000Y9500000D02*
X15940000Y9200000D01*
X16040000Y9200000D02*
X15840000Y9200000D01*
X16040000Y9500000D02*
X16040000Y9200000D01*
X15840000Y9500000D02*
X16040000Y9500000D01*
X15840000Y13860000D02*
X15840000Y7740000D01*
X11120000Y13860000D02*
X15840000Y13860000D01*
X11120000Y7740000D02*
X11120000Y13860000D01*
X15840000Y7740000D02*
X11120000Y7740000D01*
D11*
X13495714Y1241429D02*
X13352857Y1193810D01*
X13305238Y1146191D01*
X13257619Y1050953D01*
X13257619Y908096D01*
X13305238Y812858D01*
X13352857Y765239D01*
X13448095Y717620D01*
X13829047Y717620D01*
X13829047Y1717620D01*
X13495714Y1717620D01*
X13400476Y1670000D01*
X13352857Y1622381D01*
X13305238Y1527143D01*
X13305238Y1431905D01*
X13352857Y1336667D01*
X13400476Y1289048D01*
X13495714Y1241429D01*
X13829047Y1241429D01*
X12352857Y717620D02*
X12829047Y717620D01*
X12829047Y1717620D01*
X12162380Y1717620D02*
X11590952Y1717620D01*
X11876666Y717620D02*
X11876666Y1717620D01*
X11067142Y1717620D02*
X10876666Y1717620D01*
X10781428Y1670000D01*
X10686190Y1574762D01*
X10638571Y1384286D01*
X10638571Y1050953D01*
X10686190Y860477D01*
X10781428Y765239D01*
X10876666Y717620D01*
X11067142Y717620D01*
X11162380Y765239D01*
X11257619Y860477D01*
X11305238Y1050953D01*
X11305238Y1384286D01*
X11257619Y1574762D01*
X11162380Y1670000D01*
X11067142Y1717620D01*
X10210000Y1717620D02*
X10210000Y908096D01*
X10162380Y812858D01*
X10114761Y765239D01*
X10019523Y717620D01*
X9829047Y717620D01*
X9733809Y765239D01*
X9686190Y812858D01*
X9638571Y908096D01*
X9638571Y1717620D01*
X8590952Y812858D02*
X8638571Y765239D01*
X8781428Y717620D01*
X8876666Y717620D01*
X9019523Y765239D01*
X9114761Y860477D01*
X9162380Y955715D01*
X9210000Y1146191D01*
X9210000Y1289048D01*
X9162380Y1479524D01*
X9114761Y1574762D01*
X9019523Y1670000D01*
X8876666Y1717620D01*
X8781428Y1717620D01*
X8638571Y1670000D01*
X8590952Y1622381D01*
X8162380Y717620D02*
X8162380Y1717620D01*
X8162380Y1241429D02*
X7590952Y1241429D01*
X7590952Y717620D02*
X7590952Y1717620D01*
X37497619Y6221429D02*
X37164285Y6221429D01*
X37021428Y5697620D02*
X37497619Y5697620D01*
X37497619Y6697620D01*
X37021428Y6697620D01*
X36688095Y6697620D02*
X36021428Y5697620D01*
X36021428Y6697620D02*
X36688095Y5697620D01*
X35783333Y6697620D02*
X35211904Y6697620D01*
X35497619Y5697620D02*
X35497619Y6697620D01*
X34307142Y5697620D02*
X34640476Y6173810D01*
X34878571Y5697620D02*
X34878571Y6697620D01*
X34497619Y6697620D01*
X34402380Y6650000D01*
X34354761Y6602381D01*
X34307142Y6507143D01*
X34307142Y6364286D01*
X34354761Y6269048D01*
X34402380Y6221429D01*
X34497619Y6173810D01*
X34878571Y6173810D01*
X33878571Y6697620D02*
X33878571Y5888096D01*
X33830952Y5792858D01*
X33783333Y5745239D01*
X33688095Y5697620D01*
X33497619Y5697620D01*
X33402380Y5745239D01*
X33354761Y5792858D01*
X33307142Y5888096D01*
X33307142Y6697620D01*
X32830952Y5697620D02*
X32830952Y6697620D01*
X32592857Y6697620D01*
X32450000Y6650000D01*
X32354761Y6554762D01*
X32307142Y6459524D01*
X32259523Y6269048D01*
X32259523Y6126191D01*
X32307142Y5935715D01*
X32354761Y5840477D01*
X32450000Y5745239D01*
X32592857Y5697620D01*
X32830952Y5697620D01*
X31830952Y6221429D02*
X31497619Y6221429D01*
X31354761Y5697620D02*
X31830952Y5697620D01*
X31830952Y6697620D01*
X31354761Y6697620D01*
X30354761Y5697620D02*
X30688095Y6173810D01*
X30926190Y5697620D02*
X30926190Y6697620D01*
X30545238Y6697620D01*
X30450000Y6650000D01*
X30402380Y6602381D01*
X30354761Y6507143D01*
X30354761Y6364286D01*
X30402380Y6269048D01*
X30450000Y6221429D01*
X30545238Y6173810D01*
X30926190Y6173810D01*
X17142380Y21517620D02*
X16142380Y21517620D01*
X16142380Y21136667D01*
X16190000Y21041429D01*
X16237619Y20993810D01*
X16332857Y20946191D01*
X16475714Y20946191D01*
X16570952Y20993810D01*
X16618571Y21041429D01*
X16666190Y21136667D01*
X16666190Y21517620D01*
X17142380Y20089048D02*
X16618571Y20089048D01*
X16523333Y20136667D01*
X16475714Y20231905D01*
X16475714Y20422381D01*
X16523333Y20517620D01*
X17094761Y20089048D02*
X17142380Y20184286D01*
X17142380Y20422381D01*
X17094761Y20517620D01*
X16999523Y20565239D01*
X16904285Y20565239D01*
X16809047Y20517620D01*
X16761428Y20422381D01*
X16761428Y20184286D01*
X16713809Y20089048D01*
X17142380Y19612858D02*
X16475714Y19612858D01*
X16666190Y19612858D02*
X16570952Y19565239D01*
X16523333Y19517620D01*
X16475714Y19422381D01*
X16475714Y19327143D01*
X16475714Y19136667D02*
X16475714Y18755715D01*
X16142380Y18993810D02*
X16999523Y18993810D01*
X17094761Y18946191D01*
X17142380Y18850953D01*
X17142380Y18755715D01*
X17094761Y18470000D02*
X17142380Y18374762D01*
X17142380Y18184286D01*
X17094761Y18089048D01*
X16999523Y18041429D01*
X16951904Y18041429D01*
X16856666Y18089048D01*
X16809047Y18184286D01*
X16809047Y18327143D01*
X16761428Y18422381D01*
X16666190Y18470000D01*
X16618571Y18470000D01*
X16523333Y18422381D01*
X16475714Y18327143D01*
X16475714Y18184286D01*
X16523333Y18089048D01*
X16618571Y17279524D02*
X16618571Y17612858D01*
X17142380Y17612858D02*
X16142380Y17612858D01*
X16142380Y17136667D01*
X17142380Y16327143D02*
X16618571Y16327143D01*
X16523333Y16374762D01*
X16475714Y16470000D01*
X16475714Y16660477D01*
X16523333Y16755715D01*
X17094761Y16327143D02*
X17142380Y16422381D01*
X17142380Y16660477D01*
X17094761Y16755715D01*
X16999523Y16803334D01*
X16904285Y16803334D01*
X16809047Y16755715D01*
X16761428Y16660477D01*
X16761428Y16422381D01*
X16713809Y16327143D01*
X16475714Y15850953D02*
X17142380Y15850953D01*
X16570952Y15850953D02*
X16523333Y15803334D01*
X16475714Y15708096D01*
X16475714Y15565239D01*
X16523333Y15470000D01*
X16618571Y15422381D01*
X17142380Y15422381D01*
X22842380Y21624286D02*
X21842380Y21624286D01*
X22318571Y21624286D02*
X22318571Y21052858D01*
X22842380Y21052858D02*
X21842380Y21052858D01*
X22842380Y20433810D02*
X22794761Y20529048D01*
X22747142Y20576667D01*
X22651904Y20624286D01*
X22366190Y20624286D01*
X22270952Y20576667D01*
X22223333Y20529048D01*
X22175714Y20433810D01*
X22175714Y20290953D01*
X22223333Y20195715D01*
X22270952Y20148096D01*
X22366190Y20100477D01*
X22651904Y20100477D01*
X22747142Y20148096D01*
X22794761Y20195715D01*
X22842380Y20290953D01*
X22842380Y20433810D01*
X22175714Y19814762D02*
X22175714Y19433810D01*
X21842380Y19671905D02*
X22699523Y19671905D01*
X22794761Y19624286D01*
X22842380Y19529048D01*
X22842380Y19433810D01*
X22318571Y19100477D02*
X22318571Y18767143D01*
X22842380Y18624286D02*
X22842380Y19100477D01*
X21842380Y19100477D01*
X21842380Y18624286D01*
X22175714Y18195715D02*
X22842380Y18195715D01*
X22270952Y18195715D02*
X22223333Y18148096D01*
X22175714Y18052858D01*
X22175714Y17910000D01*
X22223333Y17814762D01*
X22318571Y17767143D01*
X22842380Y17767143D01*
X22842380Y16862381D02*
X21842380Y16862381D01*
X22794761Y16862381D02*
X22842380Y16957620D01*
X22842380Y17148096D01*
X22794761Y17243334D01*
X22747142Y17290953D01*
X22651904Y17338572D01*
X22366190Y17338572D01*
X22270952Y17290953D01*
X22223333Y17243334D01*
X22175714Y17148096D01*
X22175714Y16957620D01*
X22223333Y16862381D01*
X22318571Y16052858D02*
X22318571Y16386191D01*
X22842380Y16386191D02*
X21842380Y16386191D01*
X21842380Y15910000D01*
X22842380Y15100477D02*
X22318571Y15100477D01*
X22223333Y15148096D01*
X22175714Y15243334D01*
X22175714Y15433810D01*
X22223333Y15529048D01*
X22794761Y15100477D02*
X22842380Y15195715D01*
X22842380Y15433810D01*
X22794761Y15529048D01*
X22699523Y15576667D01*
X22604285Y15576667D01*
X22509047Y15529048D01*
X22461428Y15433810D01*
X22461428Y15195715D01*
X22413809Y15100477D01*
X22175714Y14624286D02*
X22842380Y14624286D01*
X22270952Y14624286D02*
X22223333Y14576667D01*
X22175714Y14481429D01*
X22175714Y14338572D01*
X22223333Y14243334D01*
X22318571Y14195715D01*
X22842380Y14195715D01*
X36172380Y21550953D02*
X35172380Y21550953D01*
X35648571Y21550953D02*
X35648571Y20979524D01*
X36172380Y20979524D02*
X35172380Y20979524D01*
X36172380Y20360477D02*
X36124761Y20455715D01*
X36077142Y20503334D01*
X35981904Y20550953D01*
X35696190Y20550953D01*
X35600952Y20503334D01*
X35553333Y20455715D01*
X35505714Y20360477D01*
X35505714Y20217620D01*
X35553333Y20122381D01*
X35600952Y20074762D01*
X35696190Y20027143D01*
X35981904Y20027143D01*
X36077142Y20074762D01*
X36124761Y20122381D01*
X36172380Y20217620D01*
X36172380Y20360477D01*
X35505714Y19741429D02*
X35505714Y19360477D01*
X35172380Y19598572D02*
X36029523Y19598572D01*
X36124761Y19550953D01*
X36172380Y19455715D01*
X36172380Y19360477D01*
X35648571Y19027143D02*
X35648571Y18693810D01*
X36172380Y18550953D02*
X36172380Y19027143D01*
X35172380Y19027143D01*
X35172380Y18550953D01*
X35505714Y18122381D02*
X36172380Y18122381D01*
X35600952Y18122381D02*
X35553333Y18074762D01*
X35505714Y17979524D01*
X35505714Y17836667D01*
X35553333Y17741429D01*
X35648571Y17693810D01*
X36172380Y17693810D01*
X36172380Y16789048D02*
X35172380Y16789048D01*
X36124761Y16789048D02*
X36172380Y16884286D01*
X36172380Y17074762D01*
X36124761Y17170000D01*
X36077142Y17217620D01*
X35981904Y17265239D01*
X35696190Y17265239D01*
X35600952Y17217620D01*
X35553333Y17170000D01*
X35505714Y17074762D01*
X35505714Y16884286D01*
X35553333Y16789048D01*
X16142380Y14473334D02*
X16142380Y13901905D01*
X17142380Y14187620D02*
X16142380Y14187620D01*
X17142380Y13568572D02*
X16142380Y13568572D01*
X17142380Y13140000D02*
X16618571Y13140000D01*
X16523333Y13187620D01*
X16475714Y13282858D01*
X16475714Y13425715D01*
X16523333Y13520953D01*
X16570952Y13568572D01*
X17094761Y12282858D02*
X17142380Y12378096D01*
X17142380Y12568572D01*
X17094761Y12663810D01*
X16999523Y12711429D01*
X16618571Y12711429D01*
X16523333Y12663810D01*
X16475714Y12568572D01*
X16475714Y12378096D01*
X16523333Y12282858D01*
X16618571Y12235239D01*
X16713809Y12235239D01*
X16809047Y12711429D01*
X17142380Y11806667D02*
X16475714Y11806667D01*
X16666190Y11806667D02*
X16570952Y11759048D01*
X16523333Y11711429D01*
X16475714Y11616191D01*
X16475714Y11520953D01*
X17142380Y11187620D02*
X16475714Y11187620D01*
X16570952Y11187620D02*
X16523333Y11140000D01*
X16475714Y11044762D01*
X16475714Y10901905D01*
X16523333Y10806667D01*
X16618571Y10759048D01*
X17142380Y10759048D01*
X16618571Y10759048D02*
X16523333Y10711429D01*
X16475714Y10616191D01*
X16475714Y10473334D01*
X16523333Y10378096D01*
X16618571Y10330477D01*
X17142380Y10330477D01*
X17142380Y9854286D02*
X16475714Y9854286D01*
X16142380Y9854286D02*
X16190000Y9901905D01*
X16237619Y9854286D01*
X16190000Y9806667D01*
X16142380Y9854286D01*
X16237619Y9854286D01*
X17094761Y9425715D02*
X17142380Y9330477D01*
X17142380Y9140000D01*
X17094761Y9044762D01*
X16999523Y8997143D01*
X16951904Y8997143D01*
X16856666Y9044762D01*
X16809047Y9140000D01*
X16809047Y9282858D01*
X16761428Y9378096D01*
X16666190Y9425715D01*
X16618571Y9425715D01*
X16523333Y9378096D01*
X16475714Y9282858D01*
X16475714Y9140000D01*
X16523333Y9044762D01*
X16475714Y8711429D02*
X16475714Y8330477D01*
X16142380Y8568572D02*
X16999523Y8568572D01*
X17094761Y8520953D01*
X17142380Y8425715D01*
X17142380Y8330477D01*
X17142380Y7854286D02*
X17094761Y7949524D01*
X17047142Y7997143D01*
X16951904Y8044762D01*
X16666190Y8044762D01*
X16570952Y7997143D01*
X16523333Y7949524D01*
X16475714Y7854286D01*
X16475714Y7711429D01*
X16523333Y7616191D01*
X16570952Y7568572D01*
X16666190Y7520953D01*
X16951904Y7520953D01*
X17047142Y7568572D01*
X17094761Y7616191D01*
X17142380Y7711429D01*
X17142380Y7854286D01*
X17142380Y7092381D02*
X16475714Y7092381D01*
X16666190Y7092381D02*
X16570952Y7044762D01*
X16523333Y6997143D01*
X16475714Y6901905D01*
X16475714Y6806667D01*
M02*
